<?xml version="1.0" encoding="UTF-8"?>
<svg id="Layer_1" xmlns="http://www.w3.org/2000/svg" version="1.1" xmlns:xlink="http://www.w3.org/1999/xlink" viewBox="0 0 36.94 28">
  <!-- Generator: Adobe Illustrator 29.8.1, SVG Export Plug-In . SVG Version: 2.1.1 Build 2)  -->
  <defs>
    <style>
      .st0 {
        fill: url(#linear-gradient);
      }
    </style>
    <linearGradient id="linear-gradient" x1="0" y1="14" x2="36.94" y2="14" gradientUnits="userSpaceOnUse">
      <stop offset="0" stop-color="#fff"/>
      <stop offset="1" stop-color="#fff"/>
    </linearGradient>
  </defs>
  <path class="st0" d="M23.67,0c-.36.64-.69,1.3-.98,1.98-2.8-.42-5.65-.42-8.46,0-.29-.68-.62-1.34-.98-1.98-2.63.45-5.19,1.24-7.62,2.35C.81,9.49-.49,16.44.15,23.3c2.82,2.08,5.98,3.68,9.35,4.69.76-1.02,1.43-2.1,2-3.23-1.09-.41-2.14-.91-3.15-1.5.27-.19.52-.39.77-.58,5.92,2.78,12.77,2.78,18.69,0,.25.21.51.41.77.58-1.01.6-2.06,1.1-3.16,1.51.57,1.13,1.24,2.21,2,3.23,3.37-1.02,6.53-2.6,9.35-4.69.77-7.96-1.31-14.85-5.49-20.96C28.87,1.24,26.31.46,23.68.01h0ZM12.33,19.08c-1.82,0-3.33-1.65-3.33-3.69s1.45-3.7,3.32-3.7,3.36,1.66,3.33,3.7c-.03,2.03-1.47,3.69-3.32,3.69ZM24.6,19.08c-1.83,0-3.32-1.65-3.32-3.69s1.45-3.7,3.32-3.7,3.35,1.66,3.32,3.7c-.03,2.03-1.47,3.69-3.32,3.69Z"/>
</svg>